<?xml version="1.0" encoding="utf-8"?>
<!-- Generator: Adobe Illustrator 19.0.0, SVG Export Plug-In . SVG Version: 6.00 Build 0)  -->
<svg version="1.1" id="Capa_1" xmlns="http://www.w3.org/2000/svg" xmlns:xlink="http://www.w3.org/1999/xlink" x="0px" y="0px"
	 viewBox="240 -240 512 512" style="enable-background:new 240 -240 512 512;" xml:space="preserve">
<style type="text/css">
	.st0{fill:#379D37;}
</style>
<g>
	<g>
		<path class="st0" d="M498-22.2c-34.8,0-63.2,28.4-63.2,63.2c0,34.9,28.4,63.2,63.2,63.2c34.8,0,63.2-28.4,63.2-63.2
			S532.8-22.2,498-22.2z"/>
	</g>
</g>
<g>
	<g>
		<path class="st0" d="M624.2,220.9c-4.3-30.1-19.3-57.7-42.3-77.8c-23.2-20.3-53-31.5-83.8-31.5c-30.9,0-60.6,11.2-83.8,31.5
			c-23,20.1-38,47.7-42.3,77.8c-0.6,4.3,0.7,8.7,3.5,12c2.9,3.3,7,5.2,11.3,5.2h222.6c4.3,0,8.5-1.9,11.3-5.2
			C623.5,229.5,624.8,225.2,624.2,220.9z"/>
	</g>
</g>
<g>
	<path class="st0" d="M457.1-67c-5.9,5.9-5.9,15.4,0,21.2c5.9,5.9,15.4,5.9,21.2,0c9.8-9.8,25.6-9.8,35.4,0c5.9,5.9,15.4,5.9,21.2,0
		c5.9-5.9,5.9-15.4,0-21.2C513.4-88.4,478.6-88.4,457.1-67z"/>
	<path class="st0" d="M580.1-91c5.9-5.9,5.9-15.4,0-21.2c-46.4-46.4-121.9-46.4-168.3,0c-5.9,5.9-5.9,15.4,0,21.2
		c5.9,5.9,15.4,5.9,21.2,0c34.7-34.7,91.2-34.7,125.9,0C564.8-85.2,574.3-85.2,580.1-91z"/>
	<path class="st0" d="M387.8-136.3c59.8-59.8,156.6-59.8,216.4,0c5.9,5.9,15.4,5.9,21.2,0c5.9-5.9,5.9-15.4,0-21.2
		c-71.5-71.5-187.3-71.5-258.8,0c-5.9,5.9-5.9,15.4,0,21.2C372.5-130.4,382-130.4,387.8-136.3L387.8-136.3z"/>
</g>
</svg>
