<?xml version="1.0" encoding="utf-8"?>
<!-- Generator: Adobe Illustrator 19.0.0, SVG Export Plug-In . SVG Version: 6.00 Build 0)  -->
<svg version="1.1" id="Layer_3" xmlns="http://www.w3.org/2000/svg" xmlns:xlink="http://www.w3.org/1999/xlink" x="0px" y="0px"
	 viewBox="240 -240 512 512" style="enable-background:new 240 -240 512 512;" xml:space="preserve">
<style type="text/css">
	.st0{fill:#379D37;}
</style>
<path class="st0" d="M736-136h-64h-72v-8c0-4.4-3.6-8-8-8h-56v-40c0-22.1-17.9-40-40-40c-22.1,0-40,17.9-40,40v40h-56
	c-4.4,0-8,3.6-8,8v8h-72h-64c-4.4,0-8,3.6-8,8v16c0,13.2,10.8,24,24,24h45.3l29.9,22.4c1.4,1,3.1,1.6,4.8,1.6h37.6L408-51.7V24
	c0,4.4,3.6,8,8,8h24v216h-16v16h160v-16h-16V32h8c4.4,0,8-3.6,8-8v-75.7L602.4-64H640c1.7,0,3.4-0.6,4.8-1.6L674.7-88H720
	c13.2,0,24-10.8,24-24v-16C744-132.4,740.4-136,736-136z M264-112v-8h48v16h-40C267.6-104,264-107.6,264-112z M424,16v-72
	c0-2.7-1.3-5.2-3.6-6.7l-24-16c-1.3-0.9-2.9-1.3-4.4-1.3h-37.3L328-100v-20h68.3c16.6,20,41.5,32,67.7,32h56V41l-32-74.7V-72h-16V32
	h16V7l32.6,76.2c1.3,2.9,4.2,4.8,7.4,4.8h24v56.5l-96-68.6V-72h-16v88H424z M520,141.3V248h-32V118.4L520,141.3z M456,95.5l16,11.4
	v141h-16V95.5z M536,248v-95.3l16,11.4V248H536z M664-100l-26.7,20H600c-1.6,0-3.1,0.5-4.4,1.3l-24,16c-2.2,1.5-3.6,4-3.6,6.7v72h-8
	c-4.4,0-8,3.6-8,8v48h-16v-192h-16v16h-56c-21.7,0-42.4-10.1-56-26.9v-5.1h56c4.4,0,8-3.6,8-8v-48c0-13.2,10.8-24,24-24
	s24,10.8,24,24v48c0,4.4,3.6,8,8,8h56v8c0,4.4,3.6,8,8,8h72V-100z M728-112c0,4.4-3.6,8-8,8h-40v-16h48V-112z"/>
</svg>
