<?xml version="1.0" encoding="utf-8"?>
<!-- Generator: Adobe Illustrator 19.0.0, SVG Export Plug-In . SVG Version: 6.00 Build 0)  -->
<svg version="1.1" id="Layer_2" xmlns="http://www.w3.org/2000/svg" xmlns:xlink="http://www.w3.org/1999/xlink" x="0px" y="0px"
	 viewBox="0 0 93.3 34.5" style="enable-background:new 0 0 93.3 34.5;" xml:space="preserve">
<style type="text/css">
	.st0{fill:none;stroke:#000000;stroke-width:0.25;stroke-miterlimit:10;}
	.st1{fill:none;}
	.st2{fill:#FFFFFF;stroke:#F91919;stroke-width:0.25;stroke-miterlimit:10;}
	.st3{fill:#FFFFFF;}
</style>
<path class="st0" d="M-11.8,50.7"/>
<path class="st0" d="M35.6,50.7"/>
<path class="st0" d="M35.6,50.7"/>
<line class="st0" x1="-11.9" y1="50.7" x2="-11.9" y2="50.7"/>
<line class="st0" x1="35.6" y1="50.7" x2="35.6" y2="50.7"/>
<line class="st0" x1="35.6" y1="50.7" x2="35.6" y2="50.7"/>
<line class="st0" x1="-11.8" y1="50.7" x2="-11.9" y2="50.7"/>
<line class="st0" x1="-35.5" y1="34.6" x2="-35.6" y2="34.6"/>
<line class="st1" x1="-35.5" y1="34.6" x2="-35.6" y2="24.2"/>
<line class="st1" x1="-35.6" y1="24.2" x2="81.6" y2="1.8"/>
<path class="st2" d="M59.5-24.3"/>
<path class="st3" d="M0,0.1h93.3V0C82.9,0,73.8,7.9,70.8,17.3l0,0c-3.1,10-12.4,17.3-23.4,17.3c-11.4,0-21.1-7.8-23.8-18.4l-0.1,0
	C20.5,6.8,11.9,0,1.5,0"/>
</svg>
